<svg width="217" height="172" viewBox="0 0 217 172" fill="none" xmlns="http://www.w3.org/2000/svg">
<path d="M20.3188 166.013C22.5266 169.674 25.6273 171.751 28.8722 171.746L74.7643 171.65C78.386 171.642 81.9556 170.337 85.1844 167.838L187.473 88.8007C196.874 81.5366 205.3 71.1678 211.034 57.5871C217.471 42.3416 218.171 31.309 215.629 23.515C213.094 15.7156 206.932 9.98784 195.151 8.82088C184.657 7.78239 174.219 11.9899 164.819 19.2486L130.187 46.0085L53.3018 2.0814C52.3774 1.13315 51.3034 0.578096 50.1909 0.473634C49.0783 0.369171 47.9677 0.719089 46.9738 1.48721L23.859 19.3503C20.1079 22.2463 19.2009 29.869 22.0414 34.6225L76.9615 87.1359L40.6774 115.175L15.2424 95.6526C14.3661 94.9798 13.3981 94.6303 12.4168 94.6321C11.4354 94.634 10.4681 94.9872 9.59285 95.6633L-4.51508 106.567C-8.18532 109.405 -9.1521 116.802 -6.47325 121.599L20.3188 166.013Z" fill="#41A4FF"/>
</svg>
