<svg width="463" height="500" viewBox="0 0 463 500" fill="none" xmlns="http://www.w3.org/2000/svg">
<path fill-rule="evenodd" clip-rule="evenodd" d="M180.906 46.546C271.659 24.8314 320.246 115.766 367.194 183.026C411.831 246.973 471.584 320.887 417.441 385.415C357.841 456.446 244.591 464.423 157.072 433.447C80.3405 406.289 51.3754 332.463 55.994 257.487C61.2486 172.186 86.1652 69.2148 180.906 46.546Z" fill="white" fill-opacity="0.25"/>
<path d="M133.999 320.269C136.185 323.514 139.254 325.355 142.467 325.35L187.9 325.265C191.486 325.258 195.02 324.101 198.216 321.887L299.483 251.834C308.79 245.396 317.132 236.206 322.809 224.169C329.182 210.657 329.874 200.879 327.358 193.971C324.848 187.058 318.747 181.981 307.084 180.947C296.695 180.027 286.362 183.756 277.055 190.189L242.769 213.907L166.652 174.974C165.737 174.133 164.674 173.641 163.572 173.549C162.471 173.456 161.371 173.766 160.387 174.447L137.504 190.279C133.79 192.846 132.892 199.602 135.704 203.815L190.076 250.359L154.154 275.211L128.973 257.907C128.105 257.311 127.147 257.001 126.176 257.003C125.204 257.005 124.246 257.318 123.38 257.917L109.413 267.581C105.779 270.096 104.822 276.653 107.474 280.904L133.999 320.269Z" fill="white"/>
<path d="M122.445 446.037C123.211 447.174 124.288 447.819 125.415 447.817L141.351 447.787C142.608 447.785 143.848 447.379 144.969 446.604L180.488 422.058C183.752 419.802 186.678 416.582 188.669 412.365C190.904 407.63 191.147 404.204 190.265 401.784C189.385 399.362 187.245 397.583 183.154 397.22C179.51 396.898 175.886 398.205 172.621 400.459L160.596 408.769L133.898 395.127C133.577 394.833 133.204 394.661 132.818 394.628C132.431 394.596 132.046 394.704 131.701 394.943L123.674 400.49C122.372 401.39 122.057 403.757 123.043 405.233L142.114 421.541L129.514 430.249L120.682 424.186C120.378 423.977 120.042 423.869 119.701 423.869C119.36 423.87 119.024 423.979 118.72 424.189L113.821 427.576C112.547 428.457 112.211 430.754 113.141 432.244L122.445 446.037Z" fill="#E7F3FF"/>
<path d="M380.107 274.816C380.874 275.953 381.95 276.598 383.077 276.597L399.013 276.567C400.27 276.565 401.51 276.159 402.631 275.383L438.15 250.838C441.414 248.582 444.34 245.362 446.331 241.145C448.567 236.41 448.81 232.984 447.927 230.563C447.047 228.141 444.907 226.363 440.816 226C437.172 225.678 433.548 226.984 430.283 229.239L418.258 237.549L391.56 223.907C391.239 223.613 390.866 223.44 390.48 223.408C390.093 223.376 389.708 223.484 389.363 223.723L381.336 229.27C380.034 230.169 379.719 232.537 380.705 234.013L399.776 250.321L387.176 259.029L378.344 252.966C378.04 252.757 377.704 252.648 377.363 252.649C377.022 252.65 376.686 252.759 376.382 252.969L371.484 256.356C370.209 257.237 369.873 259.534 370.804 261.024L380.107 274.816Z" fill="#9DD0FF"/>
<path d="M275.555 87.8638C275.946 88.4323 276.496 88.7548 277.071 88.754L285.209 88.739C285.851 88.7379 286.484 88.5351 287.056 88.1472L305.194 75.8746C306.86 74.7466 308.355 73.1366 309.371 71.0279C310.513 68.6606 310.637 66.9475 310.186 65.7373C309.737 64.5262 308.644 63.6369 306.555 63.4557C304.694 63.2944 302.843 63.9477 301.177 65.0748L295.036 69.23L281.403 62.4092C281.239 62.262 281.049 62.1758 280.851 62.1595C280.654 62.1433 280.457 62.1977 280.281 62.3169L276.182 65.0906C275.517 65.5403 275.356 66.7239 275.86 67.462L285.598 75.6161L279.164 79.9699L274.654 76.9385C274.499 76.8341 274.327 76.7798 274.153 76.7801C273.979 76.7804 273.808 76.8352 273.653 76.9402L271.151 78.6333C270.5 79.0739 270.329 80.2226 270.804 80.9673L275.555 87.8638Z" fill="#C8E4FF"/>
</svg>
